<?xml version="1.0" encoding="iso-8859-1"?>
<!-- Generator: Adobe Illustrator 19.0.0, SVG Export Plug-In . SVG Version: 6.00 Build 0)  -->
<svg version="1.1" id="Layer_1" xmlns="http://www.w3.org/2000/svg" xmlns:xlink="http://www.w3.org/1999/xlink" x="0px" y="0px"
	 viewBox="0 0 290.625 290.625" style="enable-background:new 0 0 290.625 290.625;" xml:space="preserve">
<g>
	<g>
		<path d="M290.625,103.125V75h-58.856c1.612-2.77,2.606-5.944,2.606-9.375c0-10.341-8.409-18.75-18.75-18.75H150
			c-10.341,0-18.75,8.409-18.75,18.75c0,3.431,0.994,6.605,2.606,9.375H75v28.125h14.063V281.25H65.625V262.5H51.563v-51.563h-9.375
			V74.677C60.656,72.356,75,56.587,75,37.5C75,16.823,58.177,0,37.5,0S0,16.823,0,37.5c0,19.088,14.344,34.856,32.813,37.177
			v136.261h-9.375V262.5H9.375v18.75H0v9.375h9.375h56.25h225v-9.375h-14.063V103.125H290.625z M9.375,37.5
			c0-15.511,12.614-28.125,28.125-28.125S65.625,21.989,65.625,37.5S53.011,65.625,37.5,65.625S9.375,53.011,9.375,37.5z
			 M32.813,220.313h9.375V262.5h-9.375V220.313z M56.251,281.25H18.75v-9.375h4.688h28.125h4.688V281.25z M150,56.25h65.625
			c5.17,0,9.375,4.205,9.375,9.375S220.795,75,215.625,75H150c-5.17,0-9.375-4.205-9.375-9.375S144.83,56.25,150,56.25z
			 M234.375,281.251H131.25v-32.813h103.125V281.251z M121.875,220.313v-23.438H243.75v23.438H121.875z M234.375,239.063H131.25
			v-9.375h103.125V239.063z M267.188,281.251H243.75v-0.001v-32.813h14.063v-9.375H243.75v-9.375h9.375V187.5H112.5v42.188h9.375
			v9.375h-14.063v9.375h14.063v32.813H98.438v-112.5h168.75V281.251z M267.188,159.375H98.438v-37.5h168.75V159.375z M267.188,112.5
			H98.438v-9.375h168.75V112.5z M84.375,93.75v-9.375H150h65.625h65.625v9.375H84.375z"/>
	</g>
</g>
<g>
</g>
<g>
</g>
<g>
</g>
<g>
</g>
<g>
</g>
<g>
</g>
<g>
</g>
<g>
</g>
<g>
</g>
<g>
</g>
<g>
</g>
<g>
</g>
<g>
</g>
<g>
</g>
<g>
</g>
</svg>
